<svg width="11" height="17" fill="none" xmlns="http://www.w3.org/2000/svg"><path d="M6.384 4.125c.871-.362 1.34-1.204 1.128-2.028C7.3 1.273 6.464.687 5.5.687s-1.8.586-2.012 1.41c-.212.824.257 1.666 1.128 2.028h1.768Z" fill="#F98AAB"/><path d="M3.162 4.813a.268.268 0 0 1-.2-.092C1.82 3.443 1.758 1.465 2.819.11a.268.268 0 0 1 .26-.107.28.28 0 0 1 .214.187c.034.1.015.21-.05.29-.885 1.129-.833 2.777.12 3.842a.303.303 0 0 1 .052.314.275.275 0 0 1-.253.176ZM8.267 3.438a.324.324 0 0 1-.259-.118.205.205 0 0 1-.01-.24c.552-.87.41-1.921-.361-2.674A.21.21 0 0 1 7.58.162a.296.296 0 0 1 .237-.159.342.342 0 0 1 .286.09c.925.904 1.096 2.167.433 3.211a.318.318 0 0 1-.27.134Z" fill="#F98AAB"/><path d="M11 7.865v4.434s0 1.51-.919 2.383a.547.547 0 0 0-.159.398v.86c0 .309-.241.559-.539.56h-4.31a.552.552 0 0 1-.54-.56v-.104c.001-.449-.173-.88-.481-1.193-.52-.527-1.323-1.437-1.674-2.344C1.84 10.899.762 8.937.223 8.377c-.539-.56 0-1.12.539-1.12s1.616 1.12 2.155 1.96c.172.271.372.52.598.743.135.13.323.18.5.131a.546.546 0 0 0 .376-.366c.103-.346.15-.706.143-1.068V2.215a.83.83 0 0 1 .808-.84c.446 0 .808.376.808.84v3.361a.83.83 0 0 1 .809-.84c.446 0 .808.376.808.84v.84c0-.222.085-.436.237-.593a.76.76 0 0 1 .302-.196.721.721 0 0 1 .27-.05c.445 0 .807.376.807.84v1.4c0-.223.086-.436.237-.594a.761.761 0 0 1 .302-.196.754.754 0 0 1 .329-.047c.433.048.758.432.749.885Z" fill="#F98AAB"/><path d="M5.515 1.393a.77.77 0 0 0-.277.05.824.824 0 0 0-.555.782v6.383c.008.358-.042.715-.148 1.058a.563.563 0 0 1-.25.305.552.552 0 0 0 .805-.305c.106-.343.156-.7.148-1.058V2.225a.824.824 0 0 1 .555-.782.772.772 0 0 0-.278-.05ZM6.903 4.773a.824.824 0 0 0-.555.782v2.498a.278.278 0 0 0 .555 0V5.555a.824.824 0 0 1 .555-.782.796.796 0 0 0-.555 0ZM8.571 5.606a.83.83 0 0 0-.555.783v1.664a.277.277 0 0 0 .555 0V6.388a.824.824 0 0 1 .555-.782.796.796 0 0 0-.555 0ZM10.513 6.943a.769.769 0 0 0-.278.05.83.83 0 0 0-.555.783v.554a.277.277 0 1 0 .555 0v-.555a.824.824 0 0 1 .555-.782.769.769 0 0 0-.277-.05ZM9.969 9.625c-.19 0-.344.115-.344.258v1.547c0 .142.154.258.344.258.19 0 .344-.116.344-.258V9.883c0-.143-.154-.258-.344-.258ZM10.09 12.375c-.123.003-.224.146-.234.331a.92.92 0 0 1-.161.453.468.468 0 0 0-.063.334c.021.12.084.214.163.246.08.031.165-.005.222-.094.174-.242.28-.575.296-.931 0-.186-.1-.337-.223-.339ZM5.958 15.125H5.73c-.126 0-.229.154-.229.344 0 .19.103.344.23.344h.228c.127 0 .23-.155.23-.344 0-.19-.103-.344-.23-.344ZM8.708 15.125H7.104c-.126 0-.229.154-.229.344 0 .19.103.344.23.344h1.603c.127 0 .23-.155.23-.344 0-.19-.103-.344-.23-.344Z" fill="#F8EDF0"/></svg>